<svg xmlns="http://www.w3.org/2000/svg" viewBox="0 0 24 24" fill="none" width="24" height="24"><path d="M7 3 a2.4 2.4 0 0 1 2.4 2.4 V13.6 a4 4 0 1 1 -4.8 0 V5.4 a2.4 2.4 0 0 1 2.4 -2.4 Z" fill="none" stroke="#cbb6ff" stroke-width="2" stroke-linecap="round" stroke-linejoin="round"></path><path d="M7 13.2 a2.6 2.6 0 1 0 0.01 0 Z" fill="#9d6ff6" fill-rule="nonzero"></path><path d="M6.1 8.5 H7.9 V14 H6.1 Z" fill="#9d6ff6" fill-rule="nonzero"></path><path d="M13.5 5.5 H21 V10.5 H13.5 Z" fill="none" stroke="#cbb6ff" stroke-width="1.6" stroke-linecap="round" stroke-linejoin="round"></path><path d="M18.3 6.3 a1.5 1.5 0 1 0 0.01 0 Z" fill="none" stroke="#cbb6ff" stroke-width="1.4" stroke-linecap="round" stroke-linejoin="round"></path><path d="M18.3 7.5 a0.55 0.55 0 1 0 0.01 0 Z" fill="#d6c2ff" fill-rule="nonzero"></path><path d="M14.4 6.9 H16.2 V9.1 H14.4 Z" fill="#9d6ff6" fill-rule="nonzero"></path></svg>