<svg xmlns="http://www.w3.org/2000/svg" viewBox="0 0 24 24" fill="none" width="24" height="24"><path d="M4 6 L20 18" fill="none" stroke="#8b5cf6" stroke-width="2.6" stroke-linecap="round" stroke-linejoin="round"></path><path d="M4 6 a1.3 1.3 0 1 0 0.01 0 Z" fill="#8b5cf6" fill-rule="nonzero"></path><path d="M20 18 a1.3 1.3 0 1 0 0.01 0 Z" fill="#8b5cf6" fill-rule="nonzero"></path><path d="M20 6 L4 18" fill="none" stroke="#8b5cf6" stroke-width="2.6" stroke-linecap="round" stroke-linejoin="round"></path><path d="M20 6 a1.3 1.3 0 1 0 0.01 0 Z" fill="#8b5cf6" fill-rule="nonzero"></path><path d="M4 18 a1.3 1.3 0 1 0 0.01 0 Z" fill="#8b5cf6" fill-rule="nonzero"></path><path d="M12 6.5 a4.5 4.5 0 0 1 4.5 4.5 v1 a3 3 0 0 1 -1.6 2.6 V16.5 H9.1 V14.6 a3 3 0 0 1 -1.6 -2.6 V11 a4.5 4.5 0 0 1 4.5 -4.5 Z" fill="#cbb6ff" fill-rule="nonzero"></path><path d="M10.2 11 a1.2 1.2 0 1 0 0.01 0 Z" fill="#160c28" fill-rule="nonzero"></path><path d="M13.8 11 a1.2 1.2 0 1 0 0.01 0 Z" fill="#160c28" fill-rule="nonzero"></path><path d="M11.3 12.8 H12.7 L12 14 Z" fill="#160c28" fill-rule="nonzero"></path></svg>