<svg xmlns="http://www.w3.org/2000/svg" viewBox="0 0 24 24" fill="none" width="24" height="24"><path d="M12 3 a7 7 0 0 1 7 7 v1.5 a4.5 4.5 0 0 1 -2.5 4 V18 H7.5 V15.5 a4.5 4.5 0 0 1 -2.5 -4 V10 a7 7 0 0 1 7 -7 Z" fill="#9d6ff6" fill-rule="nonzero"></path><path d="M12 3 a7 7 0 0 1 7 7 v1.5 a4.5 4.5 0 0 1 -2.5 4 V18 H7.5 V15.5 a4.5 4.5 0 0 1 -2.5 -4 V10 a7 7 0 0 1 7 -7 Z" fill="none" stroke="#cbb6ff" stroke-width="1.6" stroke-linecap="round" stroke-linejoin="round"></path><path d="M9 10 a1.8 1.8 0 1 0 0.01 0 Z" fill="#160c28" fill-rule="nonzero"></path><path d="M15 10 a1.8 1.8 0 1 0 0.01 0 Z" fill="#160c28" fill-rule="nonzero"></path><path d="M11.2 13 H12.8 L12 14.8 Z" fill="#160c28" fill-rule="nonzero"></path><path d="M9.5 15.5 V18" fill="none" stroke="#160c28" stroke-width="1.4" stroke-linecap="round" stroke-linejoin="round"></path><path d="M12 15.5 V18" fill="none" stroke="#160c28" stroke-width="1.4" stroke-linecap="round" stroke-linejoin="round"></path><path d="M14.5 15.5 V18" fill="none" stroke="#160c28" stroke-width="1.4" stroke-linecap="round" stroke-linejoin="round"></path></svg>